<?xml version="1.0" encoding="UTF-8"?>
<!DOCTYPE svg PUBLIC "-//W3C//DTD SVG 1.1//EN" "http://www.w3.org/Graphics/SVG/1.1/DTD/svg11.dtd">
<svg fill="currentColor" viewBox="0 0 96 96" class="svg-icon " style=""> <title></title> <path fill-rule="evenodd" clip-rule="evenodd" d="M79.976 31.997c8.835 0 15.999-7.161 15.999-15.999 0-8.835-7.164-15.999-16-15.999-8.834 0-15.998 7.161-15.998 15.999 0 8.835 7.164 15.999 15.999 15.999Zm-27.32 17.402 9.48-17.4v.003l.027.03C65.67 36.1 70.524 38.977 76.176 40l-13.16 24-.022.036a8 8 0 0 1-6.879 3.912 7.885 7.885 0 0 1-3.702-.909l-17.4-8.679L14.814 92l-.02.038a8 8 0 0 1-6.82 3.963h-.003a7.696 7.696 0 0 1-3.996-1.16l-.036-.022A8 8 0 0 1 .027 87.94c0-1.497.411-2.9 1.107-4.062l24-39.999.021-.036a7.997 7.997 0 0 1 6.831-3.834c1.293 0 2.514.306 3.55.831l17.12 8.56Z"></path></svg>