<?xml version="1.0" encoding="UTF-8"?>
<!DOCTYPE svg PUBLIC "-//W3C//DTD SVG 1.1//EN" "http://www.w3.org/Graphics/SVG/1.1/DTD/svg11.dtd">
<svg enable-background="new 0 0 256 256" id="Layer_1" version="1.1" viewBox="0 0 256 256" xml:space="preserve" xmlns="http://www.w3.org/2000/svg" xmlns:xlink="http://www.w3.org/1999/xlink"><g><g><polygon fill="#E15D4A" points="128,193.4 191.7,165.9 191.7,90.1 128,117.7   "/><polygon fill="#BF4028" points="128,193.4 64.3,165.9 64.3,90.1 128,117.7   "/><polygon fill="#F37C72" points="128,62.6 64.3,90.1 128,117.7 191.7,90.1   "/><ellipse cx="128" cy="90.1" fill="#FFFFFF" rx="10.8" ry="5.5"/><ellipse cx="143.8" cy="169" fill="#FFFFFF" rx="8.4" ry="10.6" transform="matrix(0.9489 0.3157 -0.3157 0.9489 60.7047 -36.7598)"/><ellipse cx="78.8" cy="114.6" fill="#FFFFFF" rx="8.4" ry="10.6" transform="matrix(-0.9489 0.3157 -0.3157 -0.9489 189.6747 198.4836)"/><ellipse cx="111.8" cy="128.1" fill="#FFFFFF" rx="8.4" ry="10.6" transform="matrix(-0.9489 0.3157 -0.3157 -0.9489 258.3524 214.3618)"/><ellipse cx="79.6" cy="155.5" fill="#FFFFFF" rx="8.4" ry="10.6" transform="matrix(-0.9489 0.3157 -0.3157 -0.9489 204.2719 277.9414)"/><ellipse cx="112.7" cy="169" fill="#FFFFFF" rx="8.4" ry="10.6" transform="matrix(-0.9489 0.3157 -0.3157 -0.9489 272.9496 293.8196)"/><ellipse cx="178.5" cy="114.6" fill="#FFFFFF" rx="8.4" ry="10.6" transform="matrix(0.9489 0.3157 -0.3157 0.9489 45.3028 -50.4929)"/></g></g></svg>