<?xml version="1.0" encoding="UTF-8"?>
<!DOCTYPE svg PUBLIC "-//W3C//DTD SVG 1.1//EN" "http://www.w3.org/Graphics/SVG/1.1/DTD/svg11.dtd">
<svg version="1.1" id="Layer_1" xmlns="http://www.w3.org/2000/svg" xmlns:xlink="http://www.w3.org/1999/xlink" x="0px" y="0px" width="80px" height="80px" viewBox="0 0 80 80" style="enable-background:new 0 0 80 80;" xml:space="preserve">
<style type="text/css">
	.st0{fill:#1E232D;}
</style>
<g>
	<path class="st0" d="M40,1C18.5,1,1,18.5,1,40c0,21.5,17.5,39,39,39c21.5,0,39-17.5,39-39C79,18.5,61.5,1,40,1z M71.9,26.8   c1.1,2.8,1.9,5.7,2.3,8.8l-7.5,1c-0.3-2.4-0.9-4.7-1.8-6.9L71.9,26.8z M61,12.6c2.4,1.8,4.6,4,6.4,6.4l-6,4.6c-1.4-1.9-3.1-3.6-5-5   L61,12.6z M44.5,5.7c3.1,0.4,6,1.2,8.8,2.3L50.4,15c-2.2-0.9-4.5-1.5-6.9-1.8L44.5,5.7z M35.5,5.7l1,7.5c-2.4,0.3-4.7,0.9-6.9,1.8   l-2.9-6.9C29.5,6.9,32.4,6.1,35.5,5.7z M19,12.6l4.6,6c-1.9,1.4-3.6,3.1-5,5l-6-4.6C14.4,16.6,16.6,14.4,19,12.6z M8.1,26.8   l6.9,2.9c-0.9,2.2-1.5,4.5-1.8,6.9l-7.5-1C6.1,32.5,6.9,29.5,8.1,26.8z M8.1,53.3c-1.1-2.8-1.9-5.7-2.3-8.7l7.5-1   c0.3,2.4,0.9,4.7,1.8,6.8L8.1,53.3z M19,67.4c-2.4-1.8-4.6-4-6.4-6.4l6-4.6c1.4,1.9,3.1,3.6,5,5L19,67.4z M35.5,74.3   c-3.1-0.4-6-1.2-8.7-2.3l2.9-6.9c2.2,0.9,4.4,1.5,6.8,1.8L35.5,74.3z M44.5,74.3l-1-7.5c2.4-0.3,4.7-0.9,6.8-1.8l2.9,6.9   C50.5,73.1,47.5,73.9,44.5,74.3z M40,61c-11.6,0-21-9.4-21-21c0-11.6,9.4-21,21-21c11.6,0,21,9.4,21,21C61,51.6,51.6,61,40,61z    M61,67.4l-4.6-6c1.9-1.4,3.6-3.1,5-5l6,4.6C65.6,63.5,63.4,65.6,61,67.4z M71.9,53.3L65,50.4c0.9-2.2,1.5-4.5,1.8-6.8l7.5,1   C73.9,47.6,73.1,50.5,71.9,53.3z"/>
	<path class="st0" d="M53.8,37.3c-0.5,0-1,0.1-1.4,0.4c0,0-0.1,0-0.1,0.1c-0.9,0.6-2,0.9-3.1,0.9h-4.4c-0.5-1.7-1.8-3-3.5-3.4v-4.4   c0-1.1,0.3-2.2,0.9-3.1c0.3-0.4,0.5-0.9,0.5-1.5c0-1.5-1.2-2.8-2.8-2.8s-2.8,1.2-2.8,2.8c0,0.5,0.1,1,0.4,1.4c0,0,0,0.1,0.1,0.1   c0.6,0.9,0.9,2,0.9,3.1v4.4c-1.6,0.5-2.9,1.8-3.4,3.4h-4.4c-1.1,0-2.2-0.3-3.1-0.9c-0.4-0.3-0.9-0.5-1.5-0.5   c-1.5,0-2.8,1.2-2.8,2.8c0,1.5,1.2,2.8,2.8,2.8c0.5,0,1-0.1,1.4-0.4c0,0,0.1,0,0.1-0.1c0.9-0.6,2-0.9,3.1-0.9h4.4   c0.5,1.6,1.7,2.9,3.4,3.4v4.4c0,1.1-0.3,2.2-0.9,3.1c-0.3,0.4-0.5,0.9-0.5,1.5c0,1.5,1.2,2.8,2.8,2.8c1.5,0,2.8-1.2,2.8-2.8   c0-0.5-0.1-1-0.4-1.4c0,0,0-0.1-0.1-0.1c-0.6-0.9-0.9-2-0.9-3.1v-4.4c1.7-0.5,3-1.8,3.5-3.4h4.4c1.1,0,2.2,0.3,3.1,0.9   c0.4,0.3,0.9,0.5,1.5,0.5c1.5,0,2.8-1.2,2.8-2.8C56.5,38.5,55.3,37.3,53.8,37.3z"/>
</g>
</svg>