<?xml version="1.0" encoding="UTF-8"?>
<!DOCTYPE svg PUBLIC "-//W3C//DTD SVG 1.1//EN" "http://www.w3.org/Graphics/SVG/1.1/DTD/svg11.dtd">
<svg enable-background="new 0 0 100 100" id="Layer_1" version="1.1" viewBox="0 0 100 100" xml:space="preserve" xmlns="http://www.w3.org/2000/svg" xmlns:xlink="http://www.w3.org/1999/xlink">
<defs><clipPath id="c">
<rect x="43" y="35" width="15" height="25"/>
</clipPath></defs>
<path d="M59.178,38.395h-1.9v23.212h1.9V38.395z M47.091,49.165c0.843-0.181,2.776,0.682,3.793,0.12  c-1.137,0.629-2.828,1.245-3.853,2.97c-0.923,1.552-0.782,2.181-0.782,2.789c0,0,5.438,0,5.96,0c0-1.612,0.348-5.144,3.371-8.314  l-1.003-0.756c-0.542,0.341-2.247,0.702-3.291,0.261c-1.043-0.441-3.853-0.843-5.599,0.401v-0.421h-1.365v4.294h1.385  C45.706,50.108,46.248,49.346,47.091,49.165z M64.376,49.165c0.843-0.181,2.776,0.682,3.793,0.12  c-1.137,0.629-2.828,1.245-3.853,2.97c-0.923,1.552-0.782,2.181-0.782,2.789c0,0,5.438,0,5.96,0c0-1.612,0.348-5.144,3.371-8.314  l-1.003-0.756c-0.542,0.341-2.247,0.702-3.291,0.261c-1.043-0.441-3.853-0.843-5.599,0.401v-0.421h-1.364v4.294h1.385  C62.991,50.108,63.533,49.346,64.376,49.165z M79.696,27.36H20.304c-2.099,0-3.8,1.701-3.8,3.8v37.68c0,2.099,1.701,3.8,3.8,3.8  h59.392c2.099,0,3.8-1.701,3.8-3.8V31.16C83.496,29.062,81.794,27.36,79.696,27.36z M75.896,65.04H24.104V34.96h51.792V65.04z   M29.998,49.165c0.843-0.181,2.776,0.682,3.793,0.12c-1.137,0.629-2.828,1.245-3.853,2.97c-0.923,1.552-0.783,2.181-0.783,2.789  c0,0,5.438,0,5.96,0c0-1.612,0.348-5.144,3.371-8.314l-1.003-0.756c-0.542,0.341-2.247,0.702-3.291,0.261  c-1.043-0.441-3.853-0.843-5.599,0.401v-0.421h-1.364v4.294h1.384C28.613,50.108,29.155,49.346,29.998,49.165z M41.698,38.395h-1.9  v23.212h1.9V38.395z" fill="#a00" transform="scale(1 1.2) translate(0 -8.1)" clip-path="url(#c)"/>
<rect x="38" y="35" width="4" height="28" fill="#333"/>
<rect x="57" y="35" width="4" height="28" fill="#333"/>
</svg>